HIERARCHY
ROOT Hips
{
	OFFSET	0.000000	0.000000	0.000000
	CHANNELS 6 Xposition Yposition Zposition Zrotation Xrotation Yrotation
	JOINT LeftUpLeg
	{
		OFFSET	12.830505	-7.049846	-1.643436
		CHANNELS 3 Zrotation Xrotation Yrotation
		JOINT LeftLeg
		{
			OFFSET	0.620834	-39.957500	-1.919341
			CHANNELS 3 Zrotation Xrotation Yrotation
			JOINT LeftFoot
			{
				OFFSET	-0.413890	-44.704761	-3.870325
				CHANNELS 3 Zrotation Xrotation Yrotation
				JOINT LeftFootHeel
				{
					OFFSET	0.164738	-8.918193	-6.555130
					CHANNELS 3 Zrotation Xrotation Yrotation
					End Site
					{
						OFFSET	-0.604053	0.000000	21.044330
					}
				}
			}
		}
	}
	JOINT RightUpLeg
	{
		OFFSET	-12.830505	-7.049846	-1.643436
		CHANNELS 3 Zrotation Xrotation Yrotation
		JOINT RightLeg
		{
			OFFSET	-0.620834	-39.957500	-1.919341
			CHANNELS 3 Zrotation Xrotation Yrotation
			JOINT RightFoot
			{
				OFFSET	0.413890	-44.704761	-3.870325
				CHANNELS 3 Zrotation Xrotation Yrotation
				JOINT RightFootHeel
				{
					OFFSET	-0.164738	-8.918193	-6.555130
					CHANNELS 3 Zrotation Xrotation Yrotation
					End Site
					{
						OFFSET	0.604053	0.000000	21.044330
					}
				}
			}
		}
	}
	JOINT Spine
	{
		OFFSET	0.000000	12.498170	1.820647
		CHANNELS 3 Zrotation Xrotation Yrotation
		JOINT Spine1
		{
			OFFSET	0.000000	7.620000	0.000000
			CHANNELS 3 Zrotation Xrotation Yrotation
			JOINT LeftShoulder
			{
				OFFSET	9.167800	29.136339	-5.551221
				CHANNELS 3 Zrotation Xrotation Yrotation
				JOINT LeftArm
				{
					OFFSET	12.133453	-3.880866	1.461963
					CHANNELS 3 Zrotation Xrotation Yrotation
					JOINT LeftForeArm
					{
						OFFSET	2.507115	-31.664908	-1.069404
						CHANNELS 3 Zrotation Xrotation Yrotation
						JOINT LeftHand
						{
							OFFSET	4.116172	-24.512624	5.009439
							CHANNELS 3 Zrotation Xrotation Yrotation
							End Site
							{
								OFFSET	-0.213136	-10.931856	2.182134
							}
						}
					}
				}
			}
			JOINT RightShoulder
			{
				OFFSET	-9.167800	29.136339	-5.551221
				CHANNELS 3 Zrotation Xrotation Yrotation
				JOINT RightArm
				{
					OFFSET	-12.133453	-3.880866	1.461963
					CHANNELS 3 Zrotation Xrotation Yrotation
					JOINT RightForeArm
					{
						OFFSET	-2.507115	-31.664908	-1.069404
						CHANNELS 3 Zrotation Xrotation Yrotation
						JOINT RightHand
						{
							OFFSET	-4.116172	-24.512624	5.009439
							CHANNELS 3 Zrotation Xrotation Yrotation
							End Site
							{
								OFFSET	0.213136	-10.931856	2.182134
							}
						}
					}
				}
			}
			JOINT Neck
			{
				OFFSET	0.000000	32.926272	-3.635654
				CHANNELS 3 Zrotation Xrotation Yrotation
				JOINT Head
				{
					OFFSET	0.000000	12.481178	4.646143
					CHANNELS 3 Zrotation Xrotation Yrotation
					End Site
					{
						OFFSET	0.000000	17.715204	-2.222063
					}
				}
			}
		}
	}
}
MOTION
Frames:     16
Frame Time: 0.016667
-4.362339	97.880943	1.260604	4.491616	3.257807	-33.930733	11.086428	-28.977594	13.019793	2.526795	34.191113	0.312420	-10.149668	-6.138308	-7.953562	0.	0.	0.	-19.254288	-16.676271	-13.987700	8.346509	35.588036	-0.012663	5.470193	-19.450970	2.919641	0.	0.	0.	0.000000	-0.000001	-0.000006	-11.610924	18.404308	10.964805	2.345134	2.981093	5.108488	-2.508826	6.456679	19.181190	53.497879	-138.046402	58.315403	-29.581106	-7.865192	11.863607	1.286817	2.440808	-5.440542	-13.586638	-3.062465	-10.055888	-66.805832	-123.471069	-72.546913	-6.835128	-10.186022	16.656128	-1.435761	8.788428	12.097315	12.346389	-2.177038	-4.095290	
-4.272330	97.179852	0.869240	4.052794	2.992112	-33.727600	11.848423	-30.400625	14.931653	3.901903	37.187538	-1.815537	-10.047445	-7.355711	-8.035867	0.	0.	0.	-19.478403	-17.164909	-13.980676	8.806900	37.763844	0.058927	4.952179	-19.794054	2.295099	0.	0.	0.	0.000000	-0.000000	0.000002	-13.068367	19.275991	11.652636	2.941096	3.078238	5.510448	-2.449090	7.605989	20.446136	53.007427	-138.032669	57.950233	-30.189072	-8.055420	12.443072	1.985010	1.869833	-5.119029	-13.932446	-2.324738	-9.969110	-67.890457	-123.632889	-73.006828	-6.823188	-10.628783	16.512171	-0.849210	8.522593	12.135762	13.398978	-2.736200	-4.771262	
-5.044696	95.945160	2.087167	2.478020	1.844088	-33.236012	12.591719	-30.213982	16.083551	6.454114	42.123981	-4.361867	-10.495448	-11.582997	-8.537254	0.	0.	0.	-19.595654	-18.280670	-11.941097	11.487270	43.747482	-3.035613	4.410635	-22.878292	1.807769	0.	0.	0.	-0.000000	0.000000	-0.000004	-13.706983	21.221512	12.064359	1.654388	3.408023	6.816772	-2.204476	12.029048	24.312834	52.264984	-138.273926	58.375141	-32.356102	-8.781332	13.547195	1.104441	1.552430	-4.467457	-15.775435	-1.361166	-9.266311	-65.407242	-123.134010	-72.078133	-6.867292	-11.171755	16.556623	-1.313133	8.595474	12.209459	15.167714	-2.963686	-6.301342	
-5.633274	94.937857	2.640781	1.739164	1.126189	-33.420540	13.073247	-30.324726	18.146681	9.926197	45.134472	-8.717933	-11.068629	-14.269059	-8.253331	0.	0.	0.	-19.616430	-18.832113	-10.107922	13.671112	47.150612	-5.141539	3.965561	-25.319098	1.301457	0.	0.	0.	0.000000	0.000000	0.000003	-14.279216	21.438238	13.042197	1.424591	4.067214	6.558363	-2.787447	15.055573	26.544445	51.519188	-138.110321	58.268364	-33.837360	-9.368155	14.257956	1.258073	1.738089	-5.257900	-17.774130	-1.783545	-8.833613	-65.859184	-123.294945	-72.495544	-6.964713	-11.581417	16.625851	-1.781734	8.987109	11.691319	16.927547	-2.247093	-7.097766	
-5.912594	93.299788	3.348955	1.134089	0.289377	-35.045448	13.275721	-30.966654	17.728926	11.696464	50.349022	-10.676415	-11.034343	-18.298010	-6.042765	0.	0.	0.	-19.542494	-20.180708	-7.932489	15.152682	51.366524	-6.655360	4.225597	-27.925903	1.574514	0.	0.	0.	-0.000000	-0.000000	0.000002	-15.248896	21.690758	13.309078	0.849341	5.087832	7.102767	-4.758098	18.098671	28.967218	49.292850	-136.531326	56.539089	-36.168465	-9.871511	15.060470	1.995193	1.414209	-5.479759	-20.973993	-4.173849	-8.054792	-68.385368	-123.269180	-74.457687	-7.080245	-11.703279	16.411474	-2.310364	8.958667	12.826875	17.733847	-1.887756	-6.678994	
-5.654316	93.318120	2.893033	0.776612	-0.235412	-37.022316	14.294927	-29.879015	19.780191	11.696469	50.349026	-10.676412	-11.034342	-18.298004	-6.042761	0.	0.	0.	-18.798063	-20.230419	-5.720542	15.152686	51.366520	-6.655360	4.225599	-27.925894	1.574515	0.	0.	0.	-0.000000	-0.000000	0.000002	-15.443319	21.728771	13.555297	0.114231	5.292508	8.854074	-4.758094	18.098669	28.967226	49.292854	-136.531326	56.539070	-35.295403	-9.573565	16.858690	2.396556	1.278059	-5.415705	-22.276539	-6.142906	-7.678074	-70.614586	-123.119942	-76.117035	-7.380515	-11.492464	16.160048	-2.491640	8.529736	12.382262	18.669470	0.278191	-5.259810	
-6.362308	91.833831	3.855516	0.551131	-0.625674	-39.554638	14.331097	-29.742271	17.581625	10.618597	54.653461	-8.663886	-11.241130	-22.289768	-3.743179	0.	0.	0.	-20.170614	-22.020483	-7.124400	13.980678	55.415829	-3.557239	4.999694	-29.376537	3.114843	0.	0.	0.	-0.000000	0.000000	-0.000005	-15.167712	21.490292	14.011458	1.029195	4.765512	7.738295	-8.990596	19.013531	26.459833	44.638309	-130.402985	50.252201	-37.104931	-8.957699	14.321385	2.859207	0.988800	-5.475213	-22.859657	-7.779561	-7.304100	-73.049294	-123.043198	-77.874390	-7.895780	-11.348382	15.604003	-3.125752	8.610483	12.869358	19.593189	1.562056	-3.385226	
-6.372546	91.547996	4.197098	0.502208	-0.950623	-42.280476	14.504771	-28.566219	18.872879	10.932724	55.279591	-8.385989	-11.342198	-23.574169	-2.927600	0.	0.	0.	-20.641439	-22.891335	-7.555707	11.453682	56.456501	-0.385777	5.904166	-29.171486	4.826879	0.	0.	0.	-0.000000	0.000000	-0.000005	-14.224722	20.899496	13.749662	1.888457	4.198339	7.769373	-9.261232	17.357105	23.015238	39.801811	-127.283432	43.934395	-36.544838	-6.713936	12.692119	3.397124	0.980393	-5.435112	-22.886549	-9.404758	-6.537722	-75.678459	-123.035355	-79.972603	-8.330256	-11.269471	14.864018	-1.573688	9.774068	11.965764	18.721182	2.938534	-1.185618	
-6.053300	91.616073	4.687115	0.487452	-1.041968	-45.155125	14.484262	-27.339815	19.755674	10.131470	55.353027	-7.134653	-11.125104	-24.290892	-1.688603	0.	0.	0.	-20.863884	-23.599012	-7.473725	8.851248	56.533829	2.585551	6.783021	-28.472448	6.460735	0.	0.	0.	-0.000000	0.000000	-0.000003	-12.680758	20.900957	12.502251	2.265039	2.816090	7.312151	-6.609856	14.678308	21.844545	35.860802	-126.587929	40.506680	-36.556305	-5.346306	11.949183	3.808430	0.672089	-5.139208	-22.490892	-11.404346	-4.709112	-77.990852	-122.627235	-81.919693	-8.642759	-11.298680	14.302506	2.550259	12.505412	9.737056	14.222406	3.768622	0.642235	
-5.941503	91.713470	5.020030	0.415982	-0.827709	-45.158684	14.484262	-27.339815	19.755674	10.131470	55.353027	-7.134653	-11.125104	-24.290892	-1.688603	0.	0.	0.	-20.863884	-23.599012	-7.473725	8.851248	56.533829	2.585551	6.783021	-28.472448	6.460735	0.	0.	0.	-0.000000	0.000000	-0.000003	-12.680758	20.900957	12.502251	2.265039	2.816090	7.312151	-6.609856	14.678308	21.844545	35.860802	-126.587929	40.506680	-36.556305	-5.346306	11.949183	3.808430	0.672089	-5.139208	-22.490892	-11.404346	-4.709112	-77.990852	-122.627235	-81.919693	-8.642759	-11.298680	14.302506	2.550259	12.505412	9.737056	14.222406	3.768622	0.642235	
-5.215275	92.250133	5.580606	0.645498	-0.637840	-49.628464	14.315205	-25.638149	20.353371	7.161184	54.468655	-3.468312	-10.319018	-24.539036	0.655339	0.	0.	0.	-20.417589	-24.616114	-6.339181	5.431606	54.765171	6.704729	7.665547	-26.607344	7.717666	0.	0.	0.	0.000000	-0.000000	-0.000001	-8.462162	20.824804	9.999840	2.990400	0.074017	5.467474	-1.961196	8.685730	24.621462	36.276127	-128.351974	46.342880	-37.600365	-1.717791	10.786040	3.923612	0.427389	-6.023563	-21.652050	-15.623191	-0.447047	-81.547668	-121.636971	-84.539711	-8.810559	-11.157874	14.695287	5.286756	16.323158	6.845313	8.674443	4.602813	4.458626	
-4.531096	92.895404	6.030005	0.817916	-0.238459	-52.409126	14.034531	-24.734100	20.216793	4.883341	53.345322	-0.633271	-9.589429	-24.132744	2.474421	0.	0.	0.	-19.822153	-25.011642	-5.572671	3.258111	52.381172	9.755715	8.074299	-24.744215	7.700160	0.	0.	0.	-0.000000	0.000000	0.000003	-4.667040	20.864717	6.811030	3.673724	-2.186322	5.268477	0.791774	3.253665	27.744417	39.646008	-128.076019	58.388630	-38.498871	5.353118	4.688969	3.874818	0.234128	-6.215048	-21.082350	-18.928225	2.269216	-84.591476	-121.468895	-86.210739	-8.620153	-11.093897	15.792997	5.939329	18.571766	6.836703	4.844820	5.379312	6.496832	
-3.619830	93.572814	6.303491	1.555318	0.827090	-55.700779	14.322979	-24.843134	21.175770	3.254780	52.216969	1.267632	-8.691307	-23.508905	4.609757	0.	0.	0.	-18.739853	-26.022680	-4.631412	1.118706	49.164383	13.016351	8.431749	-22.799755	7.317194	0.	0.	0.	-0.000001	0.000000	0.000004	1.651064	20.266321	0.436388	2.641815	-5.313054	8.400379	3.937453	-1.588380	28.666359	34.339485	-127.591911	62.530895	-43.044868	8.225877	0.069901	3.901830	-0.174103	-5.612373	-21.077406	-23.122820	4.106125	-87.722610	-122.586624	-87.264801	-7.958409	-10.842476	17.027418	6.257900	22.075071	9.373414	0.616013	5.246904	7.328726	
-3.028686	93.995250	7.011646	1.484029	1.041246	-55.708336	13.029337	-24.967182	19.088846	2.444678	51.685131	2.823310	-8.126700	-23.074297	5.797039	0.	0.	0.	-18.889301	-25.332373	-5.536732	0.287377	47.364544	14.374779	8.533377	-21.942257	7.043819	0.	0.	0.	-0.000001	0.000000	0.000004	1.651064	20.266321	0.436388	5.406873	-7.083384	6.441402	5.148321	-3.536957	27.887890	30.867107	-126.598595	62.160091	-39.500648	11.977750	1.755445	6.191982	-0.433850	-7.707237	-22.532566	-23.912493	6.236081	-87.722610	-122.586624	-87.264809	-7.958395	-10.842480	17.027412	6.257900	22.075071	9.373414	2.219023	5.551909	7.748356	
-2.089980	94.599215	7.133324	2.741012	2.712841	-58.007370	13.654387	-26.476818	20.556414	2.355088	50.668137	1.973370	-7.076837	-22.405943	8.426250	0.	0.	0.	-17.814835	-25.947195	-4.557442	-0.088846	42.443363	15.123203	9.150506	-19.068186	6.713353	0.	0.	0.	-0.000000	0.000001	-0.000001	8.733357	18.555622	-6.666244	7.378049	-11.463068	7.689500	8.532815	-7.780054	26.419746	20.394402	-127.677414	57.944530	-39.240105	17.066610	1.686657	3.744108	-0.683528	-4.440471	-23.573864	-25.275852	3.308304	-86.368484	-124.518692	-86.300789	-7.503106	-10.295067	16.681871	8.457603	24.018021	13.374420	-5.588404	6.926593	7.090044	
-1.462101	95.007349	7.746300	3.852978	3.762561	-59.668610	13.440148	-27.413628	21.016953	2.177372	49.816673	2.367574	-6.636431	-22.114946	9.709850	0.	0.	0.	-17.462509	-26.682312	-3.384760	0.485717	39.485939	13.907001	9.668883	-17.093204	7.369307	0.	0.	0.	-0.000000	0.000000	-0.000005	12.748599	16.419922	-10.452929	7.840351	-12.380888	8.030901	11.055965	-10.696305	25.709064	15.280566	-130.089340	54.605499	-40.269321	19.521242	3.791030	3.366102	-0.512614	-4.088160	-25.812321	-25.699783	2.216086	-84.091164	-125.597206	-85.241882	-7.353076	-9.971627	16.262552	4.873080	25.097660	16.802748	-3.463615	7.931207	5.694147	
